<?xml version="1.0" standalone="no"?>
<!DOCTYPE svg PUBLIC "-//W3C//DTD SVG 20010904//EN"
 "http://www.w3.org/TR/2001/REC-SVG-20010904/DTD/svg10.dtd">
<svg version="1.0" xmlns="http://www.w3.org/2000/svg"
 width="4000.000000pt" height="4000.000000pt" viewBox="0 0 4000.000000 4000.000000"
 preserveAspectRatio="xMidYMid meet">

<g transform="translate(0.000000,4000.000000) scale(0.100000,-0.100000)"
fill="#000000" stroke="none">
<path d="M19975 27949 c-22 -5 -87 -16 -145 -24 -113 -15 -147 -25 -189 -54
-14 -10 -66 -36 -116 -57 -78 -33 -102 -50 -185 -129 -52 -50 -102 -95 -111
-101 -9 -5 -36 -54 -59 -109 -24 -55 -66 -137 -93 -182 -38 -65 -51 -96 -57
-146 -4 -35 -15 -78 -25 -96 -13 -25 -15 -47 -11 -90 7 -63 23 -255 22 -257
-1 -1 -30 4 -65 11 -46 10 -116 13 -240 9 -209 -5 -225 -8 -271 -43 -35 -27
-125 -61 -162 -61 -11 0 -36 -16 -55 -35 -19 -19 -40 -35 -47 -35 -23 0 -57
-32 -112 -107 -66 -90 -93 -145 -94 -193 0 -19 -11 -53 -25 -75 -49 -80 -50
-84 -36 -118 8 -18 18 -68 23 -112 14 -127 25 -155 77 -203 25 -25 84 -81 131
-126 184 -177 174 -170 243 -177 34 -4 109 -23 167 -43 60 -20 125 -36 150
-36 89 0 216 22 285 49 38 15 101 36 139 46 49 13 81 28 108 53 21 19 38 30
38 25 0 -6 -32 -147 -71 -314 -38 -167 -83 -362 -100 -434 -16 -71 -43 -160
-60 -198 -22 -49 -30 -79 -28 -110 3 -34 -3 -54 -36 -109 l-40 -67 -60 -6
c-33 -4 -94 -17 -135 -30 -223 -69 -282 -89 -470 -160 -113 -42 -224 -83 -247
-90 -23 -7 -63 -31 -90 -53 -26 -22 -86 -59 -133 -82 -47 -24 -103 -55 -125
-70 -22 -15 -74 -44 -115 -66 -82 -43 -278 -185 -368 -268 -31 -29 -80 -65
-109 -79 -55 -28 -303 -271 -330 -324 -8 -15 -31 -46 -52 -68 -21 -22 -50 -57
-63 -78 -14 -21 -44 -53 -66 -72 -29 -26 -48 -55 -68 -106 -15 -39 -43 -92
-61 -117 -18 -26 -33 -58 -33 -71 0 -18 -3 -21 -13 -13 -11 9 -98 15 -327 23
-71 3 -256 -19 -339 -40 -42 -11 -114 -40 -161 -65 -47 -24 -116 -54 -155 -64
-108 -31 -122 -38 -148 -80 -38 -59 -91 -100 -155 -118 -61 -18 -119 -68 -175
-153 -15 -23 -37 -45 -50 -50 -12 -5 -48 -50 -81 -102 -32 -52 -82 -130 -111
-175 -76 -116 -93 -153 -105 -229 -6 -37 -24 -95 -39 -129 -43 -92 -44 -101
-30 -203 12 -85 11 -98 -6 -144 -25 -71 -16 -176 25 -294 17 -49 38 -121 46
-160 8 -38 29 -104 47 -145 55 -126 208 -340 255 -354 9 -3 43 -39 75 -80 62
-79 109 -117 170 -136 21 -6 62 -33 91 -59 40 -34 73 -53 127 -70 41 -13 126
-45 191 -72 64 -27 129 -49 145 -49 15 1 101 -14 189 -32 l161 -32 164 28 c90
16 210 37 266 47 56 9 112 24 125 32 28 18 89 30 111 21 13 -5 11 -13 -13 -52
-16 -26 -49 -101 -73 -167 -24 -66 -57 -145 -72 -175 -15 -30 -41 -93 -56
-139 -16 -46 -42 -107 -57 -135 -16 -28 -32 -73 -36 -100 -5 -40 -13 -55 -40
-78 -37 -30 -61 -80 -71 -150 -5 -30 -17 -58 -36 -79 -16 -18 -34 -48 -40 -68
-6 -20 -66 -144 -133 -276 -67 -132 -132 -264 -143 -293 -20 -49 -24 -52 -42
-42 -16 8 -32 8 -63 0 -31 -9 -57 -9 -104 0 -53 10 -65 10 -86 -4 -13 -9 -50
-25 -82 -36 -72 -24 -217 -107 -273 -155 -24 -20 -53 -60 -69 -93 -15 -31 -38
-66 -51 -78 -22 -18 -30 -48 -64 -220 -21 -109 -39 -214 -39 -233 0 -40 54
-113 103 -137 18 -9 48 -32 68 -51 54 -51 159 -69 220 -38 27 15 30 14 35 -2
18 -57 31 -76 71 -114 24 -22 60 -47 80 -55 37 -16 133 -20 208 -8 l45 6 68
-70 c100 -106 174 -131 273 -97 86 31 138 105 181 258 36 132 79 189 130 173
7 -2 25 -7 41 -10 26 -6 27 -7 12 -30 -17 -26 -37 -114 -36 -161 2 -139 6
-151 88 -253 23 -29 48 -70 54 -90 6 -20 25 -48 41 -61 46 -37 175 -81 238
-81 30 0 84 -5 120 -10 84 -12 133 0 179 43 20 18 50 39 67 46 58 23 101 80
144 190 37 92 40 106 30 137 -6 18 -16 36 -21 40 -5 3 -7 9 -4 14 6 10 -43
247 -57 272 -5 10 -49 45 -99 79 -70 47 -89 64 -84 77 4 9 18 68 31 130 23
109 42 160 69 192 7 8 25 60 40 115 14 55 35 115 46 133 10 18 19 49 19 68 0
24 10 50 32 80 28 39 32 54 38 133 6 81 11 100 57 193 28 57 65 121 83 143 27
34 31 45 26 78 -5 32 -2 44 18 68 14 17 30 49 36 72 6 23 23 69 37 102 16 36
28 82 29 115 1 32 12 76 28 110 90 197 119 276 117 323 -1 42 3 52 37 88 l38
42 56 -17 c30 -9 60 -22 67 -29 15 -19 -11 -366 -32 -422 -8 -22 -25 -65 -37
-95 -16 -41 -20 -65 -15 -95 9 -55 9 -52 -16 -210 -12 -77 -25 -174 -29 -215
-4 -41 -26 -134 -48 -206 -57 -186 -68 -244 -56 -302 7 -36 7 -56 -3 -78 -6
-16 -12 -58 -13 -94 0 -80 -14 -131 -48 -182 -26 -40 -26 -64 2 -130 5 -11 1
-18 -12 -22 -30 -10 -45 -58 -38 -118 6 -53 -3 -102 -38 -195 -14 -37 -14 -47
-1 -90 23 -74 19 -113 -16 -166 -25 -38 -28 -50 -19 -66 8 -16 7 -26 -5 -45
-9 -13 -20 -57 -24 -97 -5 -41 -16 -101 -25 -134 -9 -33 -19 -111 -23 -173 -5
-96 -9 -114 -25 -123 -12 -7 -18 -21 -18 -45 0 -47 -16 -74 -43 -74 -12 0 -49
18 -82 41 -105 70 -134 82 -195 79 -30 -2 -108 -2 -172 -1 -137 2 -150 -2
-225 -82 -62 -65 -114 -145 -161 -246 -44 -96 -51 -169 -28 -312 21 -127 28
-150 68 -216 29 -48 36 -53 84 -64 28 -6 78 -9 110 -7 33 3 80 -1 109 -8 49
-13 78 -11 103 9 20 16 219 16 312 0 68 -12 105 -13 190 -4 149 15 594 22 655
10 28 -6 176 -12 330 -14 220 -2 287 0 313 11 24 10 46 11 85 4 29 -5 90 -10
137 -10 47 0 121 -1 165 -2 95 -3 247 10 292 24 18 5 40 22 49 37 9 15 39 40
67 56 79 44 188 158 225 236 61 128 65 169 53 489 -6 157 -8 362 -6 455 8 271
8 350 0 515 -8 143 -9 204 -5 365 3 133 5 352 4 573 0 199 -3 235 -16 249 -15
14 -15 20 -2 57 27 75 36 188 22 283 -7 49 -11 117 -10 153 1 36 3 117 5 180
2 63 7 144 11 180 6 50 3 89 -14 169 -11 57 -20 105 -18 106 10 8 176 56 243
70 44 9 96 26 115 37 28 15 51 18 109 16 73 -3 75 -4 82 -32 16 -58 11 -335
-12 -696 0 -8 7 -44 16 -80 13 -50 14 -73 6 -106 -7 -29 -8 -59 -1 -94 12 -65
3 -456 -12 -487 -6 -12 -7 -36 -3 -55 12 -56 20 -338 13 -433 -12 -158 -6
-1323 7 -1390 9 -41 9 -68 3 -88 -17 -47 -3 -136 36 -237 20 -52 48 -126 63
-165 22 -59 39 -83 107 -151 89 -89 121 -109 265 -161 53 -19 127 -48 164 -64
l69 -30 196 2 c108 2 218 -1 243 -5 32 -6 53 -4 70 5 19 10 97 12 350 10 265
-2 332 0 360 12 29 12 46 12 109 2 113 -19 385 -28 450 -15 41 8 77 8 140 -1
72 -10 100 -9 181 4 70 12 124 15 205 10 98 -5 113 -4 149 15 36 18 78 57 115
105 10 13 13 50 11 140 -2 105 -8 143 -42 276 -46 177 -49 186 -95 226 -19 17
-58 64 -87 105 -81 114 -125 137 -283 147 -90 6 -90 6 -126 -26 -20 -17 -41
-31 -47 -31 -19 0 -42 47 -62 127 -11 43 -27 94 -35 114 -13 29 -14 41 -4 58
9 18 7 29 -14 65 -14 24 -28 63 -32 87 -3 24 -24 90 -45 147 -40 107 -46 145
-28 184 8 19 6 34 -12 73 -14 31 -23 73 -24 110 -2 33 -12 84 -24 115 -12 30
-33 102 -47 160 -29 122 -77 269 -104 319 -13 25 -20 65 -24 131 -5 102 -28
190 -76 292 -25 52 -30 76 -30 138 0 53 -6 88 -21 119 -11 25 -24 79 -30 120
-10 74 -28 123 -49 136 -6 4 -8 15 -5 25 3 10 -3 53 -15 96 -11 43 -20 94 -20
113 -1 51 -16 112 -45 175 -14 30 -29 88 -34 128 -5 40 -28 127 -51 193 -33
94 -44 139 -48 209 -5 84 -7 91 -39 127 -30 33 -33 41 -27 76 8 55 -29 224
-67 299 -24 48 -29 69 -24 95 4 22 0 51 -10 79 -31 84 -34 77 73 207 97 116
116 133 149 133 12 0 14 -9 11 -37 -4 -29 4 -58 33 -123 41 -92 58 -155 59
-211 0 -28 11 -51 49 -100 40 -53 49 -74 54 -119 4 -30 17 -76 31 -101 19 -37
23 -57 19 -93 -5 -38 -1 -53 19 -84 45 -68 57 -99 84 -218 27 -122 51 -187 84
-234 14 -19 18 -37 14 -61 -5 -28 1 -43 29 -84 53 -77 67 -110 67 -156 0 -24
10 -63 25 -93 13 -28 32 -89 41 -136 15 -80 48 -160 66 -160 4 0 8 -10 8 -22
0 -28 28 -90 63 -142 23 -33 27 -50 27 -108 0 -64 8 -89 115 -364 64 -163 115
-300 113 -305 -2 -4 -34 -30 -73 -56 -76 -53 -115 -101 -115 -144 0 -17 -11
-39 -30 -57 -33 -33 -35 -47 -19 -142 8 -54 7 -70 -7 -101 -21 -48 -10 -85 57
-176 27 -38 51 -83 55 -103 7 -49 22 -72 73 -114 47 -39 45 -39 177 -56 77 -9
97 -9 126 3 22 9 52 13 80 10 41 -5 52 -1 104 35 71 48 84 62 124 132 49 87
79 157 91 208 12 54 4 173 -17 241 -21 68 -18 88 11 93 53 11 184 -104 204
-178 6 -22 11 -72 11 -112 0 -81 15 -122 52 -139 119 -55 206 -67 276 -38 20
9 72 50 114 92 l77 77 35 -19 c32 -17 41 -18 117 -6 106 16 178 43 230 87 46
38 77 49 115 40 26 -7 90 23 212 100 l52 34 0 77 c0 88 -24 297 -40 358 -40
147 -73 227 -102 248 -17 12 -50 52 -74 90 -44 67 -86 102 -134 113 -14 3 -32
10 -40 15 -74 47 -167 82 -239 90 -132 13 -187 55 -236 179 -33 85 -63 133
-150 244 -87 112 -90 118 -99 175 -4 28 -28 78 -62 133 -30 49 -84 151 -120
225 -35 75 -81 159 -102 187 -21 28 -65 110 -96 181 -100 226 -122 270 -155
307 -17 20 -31 46 -31 59 0 31 -25 70 -94 147 -35 39 -56 72 -56 87 0 13 -16
52 -35 87 -19 34 -55 104 -79 154 -24 50 -65 124 -91 163 -25 40 -53 89 -62
109 -44 109 -140 293 -172 332 -21 25 -45 70 -55 100 -10 30 -36 87 -59 125
-41 70 -157 298 -157 309 0 12 79 45 194 81 82 27 141 53 192 86 40 26 91 53
112 59 22 5 46 17 53 26 8 9 47 42 89 74 97 74 146 129 160 178 8 32 16 41 39
45 23 5 38 22 75 85 25 43 69 100 97 125 47 43 50 49 48 87 -3 37 0 42 31 58
47 25 73 75 66 129 -5 36 -1 49 29 93 40 60 49 98 43 183 -4 47 0 73 14 105
16 36 19 62 16 170 -2 70 1 153 6 184 8 52 6 63 -18 112 -15 30 -33 94 -41
143 -20 121 -37 165 -101 259 -40 58 -57 94 -61 125 -4 34 -15 55 -47 89 -24
25 -50 58 -60 73 -31 50 -88 108 -204 206 -145 123 -185 149 -239 157 -28 4
-58 18 -83 39 -81 67 -285 126 -541 155 -212 24 -270 24 -324 3 -22 -8 -65
-17 -95 -19 -30 -2 -100 -17 -155 -34 -55 -16 -125 -34 -155 -40 -56 -11 -74
-20 -150 -78 -24 -18 -65 -39 -92 -47 -38 -11 -84 -44 -207 -149 -87 -74 -173
-144 -192 -155 -47 -29 -88 -26 -203 14 -55 19 -112 35 -127 35 -15 0 -54 13
-87 30 -93 46 -327 113 -381 109 -132 -9 -186 -4 -217 18 -28 20 -36 21 -134
13 -61 -6 -120 -6 -144 0 -82 18 -269 23 -381 10 -109 -12 -324 -15 -357 -4
-28 8 -22 45 27 171 27 69 45 131 45 155 0 23 11 63 25 92 13 28 29 85 36 126
6 41 23 104 37 140 16 39 27 85 27 115 0 36 10 69 33 118 18 37 37 67 43 67 5
0 26 -11 47 -25 20 -14 71 -47 112 -75 41 -28 95 -57 120 -67 25 -9 72 -27
105 -40 143 -58 163 -63 292 -69 120 -6 131 -5 172 16 24 12 86 37 138 56 194
70 241 105 338 249 53 79 77 125 84 161 23 119 33 226 27 270 -21 154 -217
416 -333 445 -23 6 -43 15 -43 20 0 26 -86 61 -235 97 -114 28 -155 41 -143
48 8 5 23 25 33 44 10 19 55 72 101 118 69 67 84 88 84 112 0 21 10 41 34 65
30 29 38 50 66 167 29 120 32 143 27 238 -6 119 -29 207 -87 342 -48 112 -95
163 -235 255 -145 96 -158 101 -375 137 -14 2 -43 0 -65 -5z m250 -190 c40
-12 251 -218 300 -292 l39 -58 3 -137 c6 -209 7 -198 -43 -284 -42 -71 -45
-82 -35 -105 10 -22 9 -29 -7 -47 -10 -12 -31 -43 -46 -69 -15 -27 -43 -57
-61 -68 -18 -11 -46 -42 -63 -69 -31 -50 -38 -55 -223 -169 l-71 -44 7 -46 c4
-25 10 -50 15 -55 13 -13 163 -26 296 -25 117 2 123 0 238 -40 l118 -41 119
-112 c170 -160 169 -158 174 -314 l5 -129 -38 -95 -38 -95 -44 -6 c-24 -3 -46
-11 -48 -18 -9 -27 -55 -70 -90 -84 -21 -8 -75 -23 -120 -33 -45 -9 -90 -25
-100 -34 -10 -10 -28 -20 -39 -24 -17 -6 -347 55 -453 84 -33 9 -79 48 -92 78
-1 4 -24 23 -49 41 -52 36 -88 95 -113 183 -11 38 -26 65 -47 82 -35 30 -49
32 -88 12 -43 -23 -61 -58 -61 -121 0 -38 -10 -81 -30 -134 -17 -43 -39 -121
-49 -172 -24 -121 -125 -486 -157 -565 -14 -36 -24 -81 -24 -111 0 -64 -27
-169 -79 -307 -29 -78 -48 -152 -67 -265 -32 -199 -48 -262 -84 -336 -15 -33
-31 -72 -34 -86 -3 -14 -20 -45 -37 -69 l-32 -44 -13 34 c-17 47 -16 110 1
140 8 14 14 41 15 60 0 40 64 271 111 400 17 47 37 130 46 185 9 61 39 176 79
297 54 164 63 201 54 219 -10 17 -8 25 9 43 25 26 27 63 6 113 -18 44 -18 43
0 43 8 0 28 12 45 28 25 23 35 48 66 167 21 80 36 160 35 187 -1 33 7 70 29
120 66 157 26 203 -154 175 -57 -9 -81 -17 -87 -30 -5 -9 -13 -24 -17 -34 -12
-25 -152 -82 -229 -93 -41 -5 -88 -20 -114 -35 -35 -20 -52 -24 -85 -19 -30 4
-44 2 -53 -10 -20 -24 -65 -19 -99 9 -19 16 -42 25 -64 25 -66 0 -138 31 -257
111 -180 120 -205 157 -216 331 -9 147 4 204 61 269 24 27 44 54 44 59 0 16
53 72 77 81 15 6 31 25 40 49 9 22 19 40 23 40 3 0 94 13 201 30 106 16 222
30 257 30 98 0 253 -19 295 -37 35 -15 40 -15 72 0 41 20 46 51 16 110 -16 31
-17 44 -9 80 6 25 7 108 3 202 -6 137 -4 167 10 210 31 91 176 320 230 365 10
8 26 33 35 55 23 53 45 75 77 75 15 0 34 7 43 15 28 25 221 125 259 135 44 10
364 2 406 -11z m2601 -3224 c81 -9 135 -21 162 -35 38 -20 42 -20 77 -6 35 15
38 15 53 -4 11 -13 46 -28 94 -40 122 -30 189 -70 303 -180 86 -82 109 -99
144 -105 46 -8 55 -19 180 -222 34 -56 71 -105 81 -108 37 -12 62 -62 71 -146
5 -45 17 -95 26 -112 10 -19 15 -50 14 -78 -1 -25 6 -79 17 -120 16 -60 19
-101 17 -224 -1 -82 -8 -163 -14 -178 -6 -16 -29 -95 -50 -176 -47 -173 -71
-232 -151 -360 -83 -134 -262 -345 -308 -362 -5 -2 -18 -21 -29 -43 -18 -35
-37 -47 -264 -162 -227 -116 -247 -124 -300 -124 -38 0 -74 -8 -106 -22 -43
-20 -68 -22 -249 -26 -198 -4 -204 -3 -329 27 -69 17 -144 31 -164 31 -27 0
-75 19 -162 63 -191 96 -259 146 -424 312 -144 144 -152 154 -185 235 -19 46
-46 98 -60 114 -21 26 -24 38 -21 88 3 56 1 60 -33 93 l-36 34 0 108 c0 69 -7
142 -20 202 -11 52 -20 106 -20 120 0 14 18 62 41 106 39 76 41 83 36 150 l-5
70 99 196 c95 186 104 199 169 258 51 45 77 78 100 125 35 74 69 106 170 159
63 34 74 44 92 85 24 55 43 71 79 72 15 0 52 15 82 34 36 21 100 45 179 65 68
18 165 44 216 58 50 14 106 23 124 21 17 -3 49 1 72 8 54 17 87 16 232 -1z
m-2796 -279 c36 -1 93 -6 128 -10 50 -7 71 -5 108 9 56 21 111 15 162 -20 30
-20 49 -25 103 -25 37 0 103 -7 146 -15 43 -8 97 -15 121 -15 28 0 95 -21 205
-64 89 -35 197 -77 239 -93 l77 -29 -28 -60 c-16 -33 -49 -83 -73 -111 -48
-53 -114 -198 -179 -386 -30 -89 -32 -101 -20 -130 7 -18 13 -39 12 -47 -12
-160 -19 -347 -15 -390 12 -105 52 -277 84 -356 35 -90 59 -134 174 -323 90
-149 142 -211 175 -211 14 0 28 -11 39 -31 33 -62 76 -101 156 -141 45 -22 99
-56 121 -75 22 -19 67 -47 100 -63 134 -64 461 -124 751 -137 l111 -6 -14 -81
c-10 -58 -21 -88 -38 -106 -29 -32 -47 -68 -75 -153 -12 -37 -32 -80 -44 -95
-30 -36 -46 -66 -46 -89 0 -59 -142 -247 -275 -366 -31 -27 -62 -64 -69 -81
-10 -23 -28 -40 -62 -57 -29 -14 -57 -38 -69 -57 -61 -100 -86 -130 -143 -167
-34 -22 -101 -65 -149 -96 -49 -31 -133 -95 -189 -141 -55 -47 -116 -90 -135
-97 -18 -6 -90 -43 -159 -81 -69 -38 -147 -79 -175 -91 -27 -12 -61 -30 -75
-40 -14 -10 -54 -26 -90 -35 -44 -11 -77 -27 -102 -50 -20 -18 -52 -35 -70
-38 -18 -4 -61 -10 -95 -15 -34 -6 -131 -37 -215 -71 -106 -42 -160 -59 -178
-55 -18 4 -35 -1 -54 -16 -23 -18 -31 -20 -52 -10 -37 16 -69 13 -89 -9 -15
-16 -26 -18 -81 -13 -58 5 -69 3 -128 -27 -60 -31 -67 -33 -91 -20 -21 11 -30
12 -43 2 -41 -29 -66 -33 -127 -22 -44 8 -88 9 -160 1 -55 -6 -167 -13 -250
-17 -123 -5 -160 -4 -204 10 -69 20 -114 20 -154 -1 -28 -14 -39 -14 -92 -3
-33 7 -114 15 -180 19 -107 6 -127 10 -186 39 -37 18 -81 32 -102 32 -60 0
-138 20 -220 58 -73 33 -82 35 -120 25 -40 -11 -41 -11 -77 29 -32 37 -42 42
-97 48 -36 5 -74 16 -90 28 -16 11 -49 28 -74 38 -24 9 -61 30 -82 46 -20 16
-61 36 -90 45 -45 13 -101 43 -117 63 -11 13 -289 200 -298 200 -5 0 -25 24
-45 53 -20 29 -75 86 -123 126 -52 44 -101 96 -125 134 -22 34 -73 100 -113
147 -40 47 -78 101 -85 122 -7 20 -36 77 -66 126 -77 127 -176 421 -181 537
-2 44 -9 115 -15 157 -11 66 -10 99 5 220 24 192 40 265 77 350 18 42 35 101
40 142 7 58 21 96 78 211 39 77 74 153 77 170 4 16 36 60 70 97 44 46 76 93
105 153 38 82 71 122 158 199 18 16 57 59 87 95 129 157 167 197 208 221 23
14 70 50 105 81 41 37 82 64 120 78 44 16 80 41 151 107 77 71 112 95 204 139
61 29 126 65 145 79 19 14 42 26 50 26 28 0 133 55 237 123 95 62 106 67 157
67 42 0 76 9 135 35 80 35 292 100 360 111 23 3 43 1 54 -8 17 -12 17 -19 -2
-133 -14 -86 -28 -136 -50 -180 -55 -109 -61 -267 -12 -335 24 -33 91 -67 152
-75 41 -6 59 -2 110 21 65 29 110 72 110 106 0 11 9 32 19 47 24 33 28 52 41
163 6 60 15 96 29 115 11 16 29 69 40 118 11 50 30 126 43 170 32 110 44 116
222 109 115 -5 139 -3 191 15 47 17 75 20 130 15 39 -3 99 -6 135 -8z m-3770
-1871 c9 -8 22 -31 29 -52 12 -31 12 -38 0 -42 -8 -2 -27 -17 -43 -33 -24 -25
-28 -34 -23 -65 5 -26 1 -43 -13 -63 -35 -49 -40 -70 -85 -345 -23 -139 -39
-374 -26 -389 8 -9 3 -20 -18 -40 -26 -25 -43 -30 -138 -42 -131 -16 -299 -18
-341 -3 -24 8 -35 7 -54 -5 -25 -16 -122 -16 -254 0 -79 10 -231 -29 -303 -77
-61 -41 -81 -71 -81 -122 0 -62 19 -104 69 -150 73 -68 95 -77 203 -76 51 1
131 -4 178 -11 48 -7 109 -9 140 -5 52 7 261 7 268 1 2 -2 -8 -20 -21 -39 -15
-22 -27 -58 -31 -94 -5 -40 -24 -92 -61 -168 -52 -105 -105 -270 -105 -327 0
-14 9 -51 21 -81 l21 -55 87 -16 c127 -23 138 -22 180 23 55 59 131 184 138
227 10 63 194 379 246 422 11 10 16 5 26 -28 62 -209 300 -556 485 -709 36
-30 66 -60 66 -66 0 -17 -49 -60 -109 -95 -45 -26 -60 -30 -93 -25 -35 6 -42
4 -73 -29 -21 -23 -43 -36 -59 -36 -13 0 -62 -9 -108 -19 -71 -16 -117 -19
-313 -17 -221 3 -235 4 -355 35 -129 32 -295 89 -365 124 -22 11 -96 58 -164
106 -98 68 -132 97 -158 138 -18 29 -42 57 -52 62 -10 6 -35 34 -55 63 -19 29
-49 73 -65 96 -17 24 -39 68 -51 98 -11 30 -40 90 -65 132 -25 42 -45 88 -45
103 0 14 -5 40 -11 57 -8 23 -8 41 1 66 8 27 7 49 -6 107 -23 103 -15 249 21
355 15 44 38 130 51 192 26 126 36 144 168 301 39 46 94 118 121 160 42 63 65
85 143 139 52 36 103 80 115 98 18 28 28 34 58 34 24 0 45 8 62 24 17 16 56
31 115 45 49 12 109 32 134 46 24 13 75 37 114 53 66 28 77 29 238 31 94 1
172 4 175 7 8 8 54 -6 71 -21z m6687 -1149 c29 -39 66 -99 83 -135 17 -37 42
-87 55 -113 55 -106 77 -149 139 -279 36 -75 88 -167 116 -203 56 -73 80 -121
80 -160 0 -14 10 -30 24 -39 26 -17 76 -109 76 -140 0 -11 13 -41 29 -66 15
-26 32 -58 35 -72 4 -13 23 -37 42 -54 18 -16 35 -40 37 -52 2 -12 11 -30 20
-41 9 -10 26 -45 37 -78 11 -32 31 -75 44 -94 12 -19 26 -51 29 -70 4 -20 28
-61 54 -94 84 -104 113 -150 129 -206 18 -62 49 -121 70 -133 8 -4 14 -18 14
-30 0 -25 17 -52 71 -115 21 -24 46 -67 55 -95 27 -83 88 -202 128 -250 20
-24 36 -55 36 -68 0 -29 33 -102 87 -189 59 -98 128 -229 148 -283 28 -75 52
-83 187 -62 l108 18 38 -27 c25 -17 51 -26 78 -26 37 0 46 -7 144 -107 58 -60
112 -124 119 -143 8 -19 28 -66 44 -105 29 -65 31 -79 33 -211 3 -160 3 -161
-72 -182 -59 -17 -61 -16 -84 28 -15 30 -20 59 -20 123 0 50 -6 102 -15 127
-20 58 -178 296 -206 310 -12 7 -41 10 -67 7 -34 -4 -53 -13 -81 -41 l-36 -37
29 -22 c17 -12 46 -31 65 -42 20 -11 44 -35 53 -54 9 -18 25 -43 36 -55 37
-41 46 -72 54 -191 4 -66 10 -152 14 -191 6 -65 5 -73 -13 -83 -36 -19 -97
-23 -138 -9 l-39 13 -27 115 c-15 63 -39 167 -54 231 l-26 116 -54 22 c-62 26
-80 43 -97 96 -8 24 -20 41 -31 43 -60 12 -147 -42 -147 -90 0 -30 27 -56 66
-67 19 -4 34 -18 44 -38 8 -18 25 -36 37 -42 36 -17 73 -82 80 -142 4 -35 14
-64 30 -82 30 -36 29 -42 -7 -83 -16 -18 -32 -51 -35 -71 -12 -68 -26 -102
-45 -108 -11 -3 -32 -25 -48 -48 -31 -46 -65 -57 -118 -37 l-29 12 23 19 c28
22 27 28 -50 211 -56 132 -96 179 -170 198 -24 7 -67 19 -96 27 -90 26 -162 3
-236 -77 -48 -52 -58 -87 -30 -111 24 -20 41 -59 48 -113 3 -27 13 -60 21 -72
16 -25 13 -40 -30 -149 -55 -140 -90 -165 -245 -176 -58 -3 -113 -10 -122 -14
-14 -5 -33 18 -98 116 -70 106 -81 127 -76 154 4 16 8 57 10 90 2 36 14 88 31
128 22 55 38 77 79 109 28 22 74 51 103 64 44 19 53 27 53 49 0 14 -11 43 -25
63 -15 21 -25 51 -25 71 0 18 -16 68 -35 111 -19 43 -35 83 -35 90 0 7 -19 54
-41 103 -23 49 -44 111 -46 136 -2 25 -17 73 -33 106 -15 33 -36 101 -45 150
-11 63 -30 118 -62 185 -55 112 -91 207 -103 273 -12 67 -16 78 -67 195 -24
57 -49 133 -55 170 -6 37 -18 88 -28 113 -10 25 -21 66 -25 91 -5 34 -14 51
-35 66 -22 16 -35 46 -68 149 -22 70 -43 156 -47 190 -7 73 -26 131 -89 277
-28 64 -46 120 -46 143 0 24 -14 66 -40 118 -23 46 -51 125 -66 185 -14 58
-34 120 -45 138 -10 18 -19 42 -19 52 0 28 22 73 43 88 10 8 30 32 44 55 14
23 35 48 45 55 11 8 43 63 73 124 30 60 66 126 81 145 16 21 31 57 35 86 9 57
34 89 63 85 12 -2 43 -33 73 -72z m-7077 -91 c46 -16 159 -19 228 -6 l42 8 0
-62 c0 -69 -24 -149 -69 -228 -16 -29 -32 -69 -35 -90 -4 -21 -33 -76 -66
-125 -33 -49 -71 -119 -84 -158 -23 -70 -58 -144 -104 -223 l-26 -44 -28 32
c-15 17 -28 38 -28 46 0 55 123 331 257 577 l91 168 -36 10 c-50 13 -74 13
-161 -5 -41 -9 -86 -14 -100 -11 -14 3 -83 8 -153 11 -98 5 -139 3 -178 -9
-40 -12 -57 -13 -78 -4 -15 7 -56 13 -92 14 -36 2 -74 4 -85 5 -11 1 -27 -1
-37 -5 -24 -11 -37 53 -14 70 34 24 344 37 521 20 60 -5 91 -3 125 8 58 19 59
19 110 1z m6117 -1007 c4 -7 11 -49 14 -93 5 -62 19 -116 63 -239 51 -144 56
-162 45 -193 -9 -28 -8 -37 4 -51 8 -9 17 -37 20 -60 3 -26 15 -54 28 -68 17
-18 23 -41 29 -101 5 -50 21 -115 45 -183 26 -72 40 -132 46 -192 5 -61 21
-126 55 -225 40 -118 47 -150 48 -220 1 -78 3 -84 33 -115 47 -48 56 -81 42
-145 -12 -62 -10 -74 37 -200 19 -51 39 -127 45 -170 6 -43 19 -109 29 -148
10 -38 21 -91 25 -116 3 -25 23 -80 44 -122 38 -73 39 -77 34 -159 -5 -77 -3
-88 22 -138 16 -30 29 -72 31 -93 1 -22 14 -56 28 -76 26 -37 34 -70 56 -219
5 -40 19 -98 31 -130 15 -40 21 -84 23 -148 1 -83 4 -94 34 -141 28 -44 38
-77 63 -210 16 -87 36 -179 45 -204 17 -53 73 -123 116 -145 l29 -15 64 65
c74 75 84 82 147 91 38 6 56 3 93 -15 81 -39 185 -187 185 -262 0 -10 14 -44
30 -75 24 -45 30 -68 30 -118 0 -34 7 -79 15 -98 18 -44 9 -73 -35 -110 -37
-32 -28 -30 -200 -31 -86 -1 -150 -7 -176 -15 -35 -12 -47 -12 -73 -1 -39 16
-55 46 -69 125 -14 84 -43 144 -95 202 -27 31 -47 65 -51 86 -4 23 -17 44 -37
59 -16 13 -47 37 -67 54 -53 46 -206 114 -254 114 -25 0 -52 -9 -76 -25 -20
-14 -51 -25 -69 -25 -30 0 -63 -21 -63 -41 0 -5 15 -26 34 -47 l34 -37 125 -3
c122 -3 125 -4 131 -27 3 -13 28 -40 55 -59 80 -59 112 -101 110 -145 -2 -25
4 -47 19 -66 22 -30 26 -49 24 -97 -2 -24 -7 -28 -59 -38 -32 -7 -83 -10 -115
-6 -38 4 -70 1 -99 -9 -52 -19 -92 -19 -128 -1 -22 12 -42 13 -91 6 -39 -5
-95 -5 -149 1 -87 11 -392 4 -500 -11 -39 -5 -65 -3 -87 6 -29 12 -35 12 -55
-5 -20 -16 -27 -17 -53 -6 -18 8 -50 11 -76 8 -31 -3 -69 2 -119 17 -62 19
-87 22 -158 16 -67 -5 -88 -3 -108 10 -19 12 -28 13 -45 4 -19 -10 -29 -5 -88
47 -196 171 -243 238 -262 374 -6 40 -19 108 -31 152 -11 43 -20 107 -19 140
1 96 -6 256 -15 319 -6 48 -4 63 14 100 20 42 20 47 6 94 -18 58 -19 124 -4
193 8 41 8 55 -6 81 -14 27 -15 40 -4 105 10 60 10 81 -1 114 -10 31 -10 53
-2 98 6 32 12 182 14 333 2 249 1 278 -15 305 -17 29 -17 39 1 245 17 194 18
219 4 254 -12 31 -13 45 -4 70 15 41 15 111 1 192 -10 58 -9 68 10 108 21 42
21 46 6 87 -27 73 -28 87 -10 151 13 46 15 80 11 132 -10 110 -16 377 -10 414
5 26 11 32 30 32 41 0 97 29 141 72 36 36 46 40 74 34 26 -5 46 2 119 44 60
35 99 50 123 50 30 0 47 10 97 54 34 30 78 60 98 67 89 29 381 225 501 336 50
46 56 49 68 31z m-4974 -329 c25 -13 114 -78 171 -126 25 -21 51 -33 70 -33
24 -1 36 -8 51 -33 29 -46 96 -77 166 -77 56 0 58 -1 76 -37 18 -37 20 -38 83
-43 57 -4 65 -8 68 -27 5 -34 28 -48 58 -34 34 15 42 14 54 -9 15 -28 -49
-273 -86 -327 -21 -32 -24 -45 -19 -81 6 -40 4 -46 -28 -77 -35 -34 -57 -94
-57 -157 0 -19 -16 -66 -35 -107 -19 -40 -38 -91 -41 -113 -5 -25 -15 -45 -30
-54 -12 -9 -26 -30 -29 -47 -17 -76 -70 -230 -113 -322 -37 -80 -47 -114 -52
-175 -5 -64 -13 -90 -59 -180 -41 -80 -54 -118 -59 -165 -3 -39 -15 -77 -33
-110 -15 -27 -35 -81 -43 -119 -9 -37 -25 -80 -35 -95 -15 -20 -18 -42 -17
-104 l2 -78 57 -64 c37 -41 76 -73 112 -90 61 -30 64 -35 90 -183 26 -147 -14
-221 -161 -293 -62 -31 -77 -34 -154 -34 -78 0 -90 3 -149 35 -36 19 -73 47
-83 61 -25 33 -68 200 -68 262 0 60 23 110 62 139 26 18 29 25 25 56 -4 19
-14 44 -24 55 -33 37 -155 117 -188 123 -40 7 -63 -4 -136 -67 -31 -27 -85
-66 -120 -87 -73 -45 -81 -58 -104 -167 -22 -106 -34 -128 -75 -142 -32 -10
-37 -9 -63 15 -58 54 -82 136 -89 299 -2 66 -1 73 24 98 15 15 39 48 54 73 30
53 82 112 99 112 13 0 58 48 98 101 l26 37 -61 37 c-34 21 -66 38 -72 38 -6 0
-30 -12 -54 -28 -31 -20 -45 -38 -52 -66 -7 -26 -21 -44 -45 -59 -74 -45 -116
-118 -151 -259 -26 -105 -30 -151 -14 -167 8 -8 -3 -22 -34 -48 -54 -44 -72
-42 -163 17 l-63 41 -2 75 c-5 144 0 180 30 246 49 103 96 158 161 188 40 18
66 39 89 71 l32 45 -52 40 -53 40 -31 -20 c-17 -10 -45 -19 -61 -19 -24 0 -31
-6 -42 -35 -9 -27 -20 -37 -41 -41 -23 -5 -38 -23 -78 -93 -28 -47 -71 -122
-97 -166 -43 -75 -46 -83 -41 -132 7 -59 -6 -95 -41 -118 -22 -15 -26 -14 -53
5 -17 12 -42 42 -57 68 -23 39 -28 60 -31 137 -3 83 -1 94 23 140 15 28 45 85
66 128 44 88 102 155 183 211 40 27 62 37 79 32 12 -3 45 1 71 9 64 19 106 19
156 -1 38 -15 46 -15 106 -1 79 20 116 45 139 94 9 21 30 58 46 83 19 31 33
73 43 130 12 69 19 88 38 100 52 34 67 57 62 92 -5 31 0 41 66 117 76 88 90
114 90 163 0 17 14 61 31 97 17 36 67 152 110 257 43 106 92 220 110 255 42
84 75 173 84 229 4 25 20 60 37 80 15 20 44 76 63 125 19 49 42 99 50 111 8
12 19 42 26 67 12 49 41 87 65 87 8 0 25 -5 37 -11z m1560 -608 c127 -25 160
-29 192 -20 21 6 54 8 74 5 20 -3 150 -10 290 -15 224 -9 257 -8 284 6 20 10
74 18 151 23 67 4 131 12 143 18 24 13 68 15 125 6 28 -5 39 -13 46 -33 11
-35 7 -469 -6 -501 -6 -16 -6 -105 0 -255 5 -126 7 -285 3 -351 -4 -95 -2
-131 9 -165 12 -35 13 -52 4 -84 -6 -22 -12 -87 -12 -145 -1 -82 3 -114 17
-146 18 -38 18 -44 3 -72 -20 -39 -20 -75 0 -114 19 -38 16 -155 -11 -333 -15
-105 -16 -130 -4 -203 10 -66 10 -94 1 -128 -16 -57 -15 -74 2 -93 12 -14 13
-43 6 -181 -17 -307 -12 -648 8 -687 10 -18 6 -37 -23 -114 -55 -143 -62 -153
-139 -217 -104 -86 -122 -95 -156 -89 -17 4 -44 0 -65 -9 -20 -8 -84 -19 -144
-25 -89 -9 -122 -8 -193 5 -105 20 -171 20 -206 2 -24 -12 -79 -13 -367 -3
-187 6 -413 11 -502 11 -219 1 -217 -1 -145 141 30 59 67 116 86 133 51 44
198 94 266 90 l55 -3 32 48 32 48 -31 35 c-32 35 -55 41 -89 24 -14 -8 -27 -6
-50 5 -30 16 -35 15 -142 -20 -136 -45 -153 -55 -172 -103 -9 -21 -48 -68 -90
-107 -72 -68 -75 -72 -73 -115 1 -36 -7 -59 -42 -117 -49 -83 -64 -90 -177
-80 -38 4 -83 2 -109 -5 -41 -11 -46 -10 -66 9 -20 21 -23 21 -52 6 -24 -13
-46 -14 -111 -8 -83 9 -125 9 -211 4 -62 -3 -113 16 -119 45 -2 11 -6 32 -9
46 -3 14 -14 51 -26 84 -22 62 -21 96 8 151 9 17 15 37 14 46 -2 10 13 48 33
85 27 52 46 74 73 88 20 10 51 30 68 42 27 21 42 24 118 24 71 0 92 -4 112
-19 13 -10 44 -22 69 -25 29 -5 45 -12 45 -22 0 -32 38 -54 93 -54 49 0 56 -3
92 -40 44 -45 55 -48 80 -20 10 11 31 20 46 20 25 0 30 5 39 43 6 23 15 58 21
77 5 19 9 63 9 97 0 39 10 93 26 145 24 74 27 102 30 262 3 161 5 181 23 200
27 29 38 61 50 150 6 42 18 91 27 108 16 31 24 108 27 263 1 39 6 77 12 85 5
8 13 40 16 70 4 30 15 75 24 100 12 32 19 85 22 180 4 105 9 139 21 153 9 10
19 44 23 75 20 162 38 245 65 283 l26 38 -22 36 -22 35 26 31 c32 38 40 68 32
120 -4 28 1 65 19 126 14 48 25 106 25 128 0 23 9 77 20 121 11 43 27 138 35
209 22 194 35 266 56 306 24 47 48 72 65 65 7 -3 82 -19 167 -35z"/>
<path d="M19932 27463 c-47 -23 -101 -89 -153 -184 -25 -47 -67 -106 -96 -135
-38 -39 -53 -62 -58 -91 -4 -21 -21 -90 -40 -153 -51 -178 -69 -324 -55 -444
6 -54 10 -99 8 -101 -2 -2 -41 -14 -88 -26 -47 -12 -105 -32 -130 -45 -25 -13
-58 -23 -75 -22 -16 0 -53 -11 -80 -25 -28 -14 -71 -30 -95 -37 -55 -15 -96
-35 -133 -66 -26 -22 -29 -22 -68 -8 -50 17 -111 17 -159 0 -30 -11 -37 -19
-47 -62 -31 -124 43 -232 124 -179 13 9 48 23 76 32 70 20 124 49 153 80 17
19 36 26 69 29 36 2 55 10 83 36 32 29 61 40 182 73 80 21 178 49 219 61 84
26 81 27 121 -48 21 -39 118 -118 145 -118 26 0 56 -20 120 -78 33 -31 92 -79
131 -108 39 -29 81 -69 92 -88 40 -67 111 -92 172 -61 37 19 50 43 50 94 0 61
-15 83 -79 114 -32 16 -86 50 -120 77 -33 27 -77 56 -96 64 -20 9 -61 38 -93
66 -31 27 -95 74 -141 103 -46 28 -97 68 -113 88 -37 46 -78 201 -60 230 16
25 15 63 -2 120 -13 41 -12 49 5 85 10 21 18 51 19 65 0 15 9 37 19 51 13 16
18 33 14 47 -3 14 6 45 25 84 17 34 42 87 55 118 28 64 77 123 120 146 17 8
55 38 84 65 l52 50 -19 38 c-21 42 -64 80 -89 80 -9 0 -31 -8 -49 -17z"/>
<path d="M23033 24115 c-23 -7 -62 -24 -86 -38 -40 -24 -48 -36 -122 -194 -43
-92 -102 -214 -132 -271 -40 -77 -53 -113 -53 -146 0 -42 -1 -43 -52 -69 -83
-41 -145 -50 -318 -45 -117 4 -161 2 -181 -8 -21 -11 -56 -11 -180 -2 -152 10
-155 10 -229 -15 -161 -55 -210 -105 -210 -215 0 -50 3 -55 48 -98 26 -24 65
-55 87 -69 45 -26 50 -26 498 -29 125 0 227 -2 227 -4 0 -2 -9 -15 -20 -30
-11 -15 -27 -62 -35 -105 -18 -96 -37 -133 -80 -158 -26 -15 -38 -33 -51 -72
-9 -29 -34 -84 -55 -124 -50 -92 -50 -116 0 -162 21 -20 45 -52 53 -71 23 -56
39 -63 147 -68 114 -5 109 -8 184 106 73 110 78 119 80 153 1 24 41 97 129
239 125 201 143 241 116 268 -9 9 -9 15 1 25 15 15 315 14 466 -2 70 -7 121
-7 170 0 39 6 110 11 159 10 77 0 93 3 128 25 45 29 78 89 78 144 0 19 -7 62
-14 94 -16 67 -37 89 -103 105 -23 6 -57 20 -75 30 -30 18 -50 19 -248 16
-193 -3 -219 -2 -257 15 -24 10 -43 23 -43 27 0 5 25 52 55 105 31 54 67 127
80 163 14 36 45 106 70 155 29 58 45 103 45 127 0 64 -67 140 -162 183 -50 23
-59 23 -115 5z m76 -271 c-66 -148 -149 -309 -251 -484 -67 -115 -78 -138 -69
-157 18 -40 19 -40 451 -13 111 7 176 7 200 0 19 -5 49 -10 65 -10 33 0 125
-52 125 -70 0 -15 -63 -40 -101 -40 -17 0 -59 5 -93 11 -44 8 -82 9 -132 2
-53 -8 -76 -8 -101 3 -26 10 -51 10 -128 1 -73 -8 -113 -8 -166 1 -38 7 -91
12 -118 12 -43 0 -52 -4 -80 -35 -17 -20 -31 -42 -31 -50 0 -8 -18 -49 -41
-91 -23 -45 -43 -98 -46 -126 -4 -35 -15 -58 -40 -87 -18 -22 -77 -129 -129
-238 -111 -230 -119 -240 -149 -182 -12 22 -14 43 -10 72 12 74 194 467 291
627 18 30 36 67 40 83 l6 27 -84 0 c-52 0 -103 -6 -132 -16 -40 -14 -54 -15
-85 -4 -26 8 -106 11 -266 9 -127 -1 -261 0 -300 2 -66 5 -70 7 -73 30 -2 14
3 31 11 37 21 18 279 35 397 27 164 -11 201 -10 253 5 41 12 53 12 95 0 30
-10 83 -14 146 -13 126 2 132 8 181 157 20 61 47 127 60 147 13 20 56 101 96
180 78 158 110 208 160 257 28 27 86 55 97 47 2 -2 -20 -56 -49 -121z"/>
<path d="M19860 23236 c-58 -12 -119 -29 -135 -38 -17 -9 -60 -47 -96 -85 -36
-37 -86 -84 -110 -104 -33 -27 -62 -68 -106 -150 -64 -118 -91 -195 -94 -264
-2 -22 -11 -62 -22 -90 -34 -88 -36 -111 -17 -208 10 -51 21 -132 25 -182 9
-119 17 -148 81 -291 30 -67 54 -125 54 -129 0 -4 42 -51 93 -105 51 -54 105
-120 118 -147 19 -35 32 -49 52 -53 18 -3 33 -16 45 -40 15 -30 25 -37 77 -51
66 -18 183 -67 239 -100 25 -15 44 -19 63 -14 14 3 69 6 122 6 172 -1 223 12
325 78 50 32 101 63 114 70 12 6 28 27 36 45 8 19 46 67 85 107 51 53 75 86
82 114 6 22 27 72 46 110 25 47 37 84 37 115 1 29 10 59 26 85 21 34 25 53 26
120 0 44 4 88 8 97 5 11 -4 54 -23 115 -17 54 -42 163 -55 243 -36 210 -70
275 -225 429 -152 151 -298 281 -315 281 -7 0 -60 13 -117 30 -90 26 -119 30
-219 29 -76 -1 -150 -8 -220 -23z m359 -145 c36 -5 58 -14 67 -27 27 -39 34
-43 63 -38 23 5 35 -1 67 -33 22 -21 57 -47 80 -57 27 -11 46 -28 55 -49 8
-17 28 -38 44 -47 33 -17 88 -119 170 -312 56 -132 73 -222 81 -438 6 -144 5
-169 -10 -198 -9 -18 -26 -67 -36 -108 -28 -109 -45 -138 -103 -177 -30 -20
-63 -53 -77 -77 -48 -82 -65 -93 -200 -130 -101 -28 -143 -34 -220 -35 -89 0
-101 3 -185 40 -93 41 -243 135 -283 178 -13 13 -35 47 -50 75 -15 28 -56 92
-91 143 -70 101 -90 144 -91 201 0 24 -9 47 -26 67 -14 17 -27 47 -30 68 -3
21 -10 61 -16 89 -9 44 -8 55 7 78 14 21 18 50 19 134 1 90 5 114 24 149 12
23 22 55 22 71 0 18 10 38 30 57 25 24 30 37 30 74 0 55 22 89 101 154 109 90
176 119 329 141 112 16 156 17 229 7z"/>
<path d="M19975 22973 c-57 -13 -89 -28 -132 -64 -26 -21 -61 -42 -78 -45 -37
-7 -95 -90 -148 -214 -70 -165 -81 -264 -41 -358 11 -25 16 -63 15 -117 -1
-76 0 -84 35 -140 29 -48 37 -71 38 -112 1 -45 6 -57 37 -90 20 -21 56 -68 82
-104 61 -87 96 -116 153 -125 25 -3 57 -16 72 -28 142 -115 303 -117 497 -6
97 55 141 103 190 206 25 52 45 106 45 120 0 13 6 39 14 57 9 22 14 76 14 161
0 125 -1 130 -39 232 -28 76 -39 120 -39 160 0 54 -1 57 -58 112 -31 31 -92
103 -135 160 -53 70 -84 102 -98 102 -11 0 -34 15 -52 34 -28 30 -43 37 -116
50 -78 15 -210 19 -256 9z"/>
<path d="M17830 22670 c-41 -3 -91 -14 -111 -23 -20 -9 -45 -13 -57 -10 -32 8
-139 -57 -204 -124 -30 -32 -78 -79 -105 -105 -82 -78 -193 -312 -193 -407 0
-20 -11 -63 -25 -96 -29 -70 -30 -95 -11 -190 8 -38 19 -124 25 -190 13 -152
24 -187 108 -343 57 -106 82 -140 154 -213 59 -59 88 -97 92 -118 4 -17 13
-31 20 -31 15 0 59 -44 75 -76 8 -14 24 -23 50 -26 44 -6 228 -82 253 -105 22
-19 343 -12 406 10 22 7 88 45 147 82 84 54 112 78 136 116 16 27 44 65 63 86
53 60 76 98 97 158 11 31 29 70 42 88 12 17 26 54 29 82 4 27 17 77 29 110 12
33 24 94 27 135 5 63 1 89 -21 159 -15 47 -36 139 -47 205 -10 67 -29 148 -41
181 -26 74 -126 257 -147 269 -9 5 -65 57 -126 115 -202 195 -244 222 -393
252 -96 19 -138 21 -272 9z m267 -166 c13 -2 30 -18 38 -34 12 -23 22 -30 45
-30 18 0 42 -11 62 -29 18 -15 44 -32 58 -36 14 -4 54 -36 90 -72 36 -35 71
-70 79 -78 24 -23 159 -319 181 -396 37 -135 54 -473 25 -528 -8 -16 -22 -62
-31 -102 -23 -104 -43 -138 -105 -179 -37 -24 -65 -54 -90 -95 -43 -72 -64
-82 -248 -126 -223 -53 -285 -40 -501 106 l-115 77 -94 141 c-111 169 -134
213 -156 298 -9 35 -24 75 -33 89 -9 14 -17 41 -18 60 -1 19 -5 58 -9 86 -6
39 -3 58 10 83 14 27 15 48 10 116 -6 70 -4 89 13 128 11 25 23 60 27 78 4 19
18 46 30 61 13 15 33 56 44 90 12 35 30 78 41 96 38 62 226 163 339 182 149
25 236 29 308 14z"/>
<path d="M17915 22390 c-156 -14 -237 -54 -325 -163 -66 -81 -105 -160 -124
-250 -64 -309 -65 -366 -12 -470 27 -55 35 -80 30 -102 -4 -24 1 -38 25 -69
17 -21 36 -57 42 -80 18 -65 37 -96 110 -174 38 -39 69 -76 69 -82 0 -13 74
-50 101 -50 12 0 45 -13 73 -29 31 -18 84 -35 138 -45 100 -19 118 -14 242 58
123 73 198 154 232 248 49 140 97 434 75 462 -5 6 -12 41 -15 77 -5 45 -18 88
-41 133 -25 51 -32 75 -28 104 5 43 17 27 -191 242 -100 102 -157 153 -195
172 -56 29 -62 30 -206 18z"/>
<path d="M19680 20885 c-47 -13 -166 -51 -265 -85 -99 -33 -218 -67 -265 -75
-71 -12 -112 -28 -247 -96 -89 -44 -167 -87 -174 -95 -6 -8 -9 -26 -6 -40 4
-25 3 -26 -28 -21 -71 12 -161 -78 -245 -244 -33 -65 -60 -128 -60 -141 0 -60
23 -102 93 -172 145 -144 317 -194 499 -145 24 6 52 6 84 -1 78 -18 314 18
437 65 20 8 59 15 86 15 42 0 52 4 69 28 18 24 26 27 71 25 64 -3 253 63 321
112 25 17 67 43 94 56 27 13 61 39 75 56 21 27 33 33 64 33 34 0 41 5 85 62
26 34 70 88 99 119 61 68 83 129 83 233 0 53 -6 84 -24 122 -28 60 -79 120
-109 130 -12 3 -53 20 -90 36 -38 16 -83 28 -100 27 -18 -1 -43 3 -57 8 -14 6
-110 10 -215 11 -171 0 -199 -2 -275 -23z m190 -198 c17 -29 42 -89 57 -134
17 -51 33 -85 44 -88 16 -6 39 -45 39 -70 0 -8 25 -41 56 -74 55 -60 56 -62
40 -86 -21 -32 -73 -58 -161 -79 -38 -10 -85 -26 -104 -37 -18 -11 -34 -19
-35 -17 -1 2 -13 28 -26 58 -41 93 -114 218 -214 365 -52 77 -93 141 -92 142
1 1 58 14 126 28 69 15 143 35 165 44 51 23 66 15 105 -52z m363 37 c81 -15
97 -21 97 -36 0 -10 17 -37 39 -61 59 -64 59 -76 5 -144 -94 -115 -118 -143
-126 -143 -12 0 -88 117 -114 176 -13 30 -42 74 -64 98 -57 61 -55 115 5 129
22 5 23 5 158 -19z m-866 -166 c17 -29 34 -72 38 -95 8 -48 48 -113 101 -163
21 -19 52 -66 70 -105 18 -38 48 -92 68 -120 19 -27 33 -51 32 -53 -2 -1 -16
2 -32 8 -39 15 -92 4 -183 -37 -117 -54 -166 -44 -192 36 -6 20 -28 54 -49 76
-45 48 -59 74 -94 180 -19 58 -40 98 -76 142 l-50 62 59 31 c33 16 66 30 72
30 6 0 25 11 41 25 26 22 37 25 73 19 25 -3 51 -1 62 5 26 15 26 16 60 -41z
m-433 -252 c78 -94 86 -108 86 -146 0 -31 11 -63 40 -115 57 -104 56 -108 -31
-99 -62 6 -74 4 -99 -14 l-28 -21 -137 34 c-145 35 -159 44 -171 103 -9 46 0
91 32 162 23 52 32 61 64 71 30 9 41 19 52 48 11 28 26 43 59 59 24 11 45 21
46 22 1 0 40 -47 87 -104z"/>
</g>
</svg>
